<mxfile host="app.diagrams.net" modified="2023-05-16T06:07:34.393Z" agent="Mozilla/5.0 (Windows NT 10.0; Win64; x64) AppleWebKit/537.36 (KHTML, like Gecko) Chrome/113.0.0.0 Safari/537.36 Edg/113.0.1774.42" version="21.3.2" etag="jn6CNg7EjnGkOadVkFNd" type="github">
  <diagram name="第 1 页" id="fYGabl9e8bqfXyOE4GmM">
    <mxGraphModel>
      <root>
        <mxCell id="0" />
        <mxCell id="1" parent="0" />
      </root>
    </mxGraphModel>
  </diagram>
</mxfile>
